<?xml version="1.0" encoding="utf-8"?>
<!-- Generator: Adobe Illustrator 15.1.0, SVG Export Plug-In  -->
<!DOCTYPE svg PUBLIC "-//W3C//DTD SVG 1.1//EN" "http://www.w3.org/Graphics/SVG/1.1/DTD/svg11.dtd" [
	<!ENTITY ns_flows "http://ns.adobe.com/Flows/1.0/">
]>
<svg version="1.1"
	 xmlns="http://www.w3.org/2000/svg" xmlns:xlink="http://www.w3.org/1999/xlink" xmlns:a="http://ns.adobe.com/AdobeSVGViewerExtensions/3.0/"
	 x="0px" y="0px" width="169px" height="43px" viewBox="0 0 169 43" overflow="visible" enable-background="new 0 0 169 43"
	 xml:space="preserve">
<defs>
</defs>
<path fill="#FECD2D" d="M28.677,20.853C18.203,19.226,5.621,14.54,5.027,11.547C4.423,8.509,19.163,1.205,21.989,2.608
	C26.164,4.679,21.573,11.785,20,14.5c-0.165,0.285-0.043,0.599,0.272,0.69c2.934,0.843,6.978,1.298,8.479,1.446
	c0.327,0.032,0.609-0.211,0.627-0.538c0.646-12.105-2.79-17.246-8.793-15.885C14.335,1.632,3.52,6.462,0.627,13.398
	c-4.076,9.767,12.917,17.016,16.314,18.493c2.372,1.032,4.601,1.846,6.606,2.426c0.316,0.091,0.667-0.088,0.784-0.395l4.722-12.425
	C29.17,21.19,29.001,20.904,28.677,20.853"/>
<path fill="#FECD2D" d="M99.352,22.463h-10.91c-3.111,0-4.268,1.205-4.268,4.447v5.515c0,3.242,1.157,4.447,4.268,4.447h10.91
	c3.111,0,4.269-1.205,4.269-4.447V26.91C103.621,23.668,102.464,22.463,99.352,22.463 M100.005,26.554v6.226
	c0,0.706-0.17,0.889-0.831,0.889H88.561c-0.612,0-0.771-0.183-0.771-0.889v-6.226c0-0.707,0.158-0.89,0.771-0.89h10.613
	C99.834,25.665,100.005,25.848,100.005,26.554z"/>
<path fill="#FECD2D" d="M165.201,22.463h-11.778c-2.633,0.097-3.757,1.285-3.757,3.972v10.436h3.616V26.435
	c0-0.663,0.088-0.771,0.623-0.771h10.82c0.536,0,0.624,0.108,0.624,0.771v10.436h3.616V26.435
	C168.966,23.749,167.842,22.561,165.201,22.463"/>
<path fill="#FECD2D" d="M79.099,22.463l-3.72,9.787l-0.016,0.041c-0.432,1.085-1.067,1.26-2.884,1.26
	c-1.835,0-2.475-0.182-2.906-1.316l-3.72-9.771h-4.101l3.991,10.499l0.076,0.185l0.002-0.001c0.922,2.26,2.604,3.472,5.135,3.703
	c0.56,0.051,1.071,0.051,1.522,0.051c0.449,0,0.958,0,1.516-0.051c2.603-0.236,4.308-1.508,5.213-3.889l3.99-10.497H79.099"/>
<path fill="#FECD2D" d="M121.634,22.463h-10.824c-2.855,0-4.625,0.763-4.625,4.566v5.276c0,3.03,1.557,4.567,4.625,4.567h11.087
	v1.337c0,1.598-0.202,1.838-1.542,1.838h-9.419c-2.084,0-2.54,2.139-2.54,2.964v0.209h12.079c3.541,0,4.921-1.546,4.921-5.513
	l0.003-11.272C125.398,23.749,124.275,22.561,121.634,22.463 M121.897,32.781c0,0.706-0.158,0.889-0.771,0.889h-10.554
	c-0.612,0-0.77-0.183-0.77-0.889v-6.226c0-0.707,0.158-0.89,0.77-0.89h10.706c0.535,0,0.622,0.108,0.622,0.771L121.897,32.781z"/>
<path fill="#FECD2D" d="M142.873,22.463H132.23c-3.588,0-4.268,1.562-4.268,4.447v5.515c0,3.242,1.157,4.447,4.268,4.447h12.392
	v-0.237c0-0.825-0.456-2.966-2.54-2.966h-9.141c-1.006,0-1.363-0.31-1.363-1.187v-1.577h11.741c3.287,0,3.821-1.109,3.821-4.122
	C147.141,23.771,146.503,22.463,142.873,22.463 M143.703,27.58c0,0.699-0.166,0.891-0.77,0.891h-11.354v-1.916
	c0-0.707,0.158-0.89,0.771-0.89h10.583c0.612,0,0.77,0.183,0.77,0.89V27.58z"/>
<path fill="#FECD2D" d="M50.386,36.872h4.34L49.899,24.17l-0.087-0.21l-0.002,0c-1.46-3.623-3.925-4.293-5.666-4.479
	c-0.663-0.07-1.295-0.07-1.853-0.07c-0.556,0-1.187,0-1.847,0.07c-1.776,0.188-4.304,0.877-5.755,4.691l-4.827,12.699h4.34
	l1.9-4.998h12.381L50.386,36.872 M37.255,28.843l1.465-3.854l0.015-0.04c0.534-1.339,1.356-1.565,3.557-1.565
	c2.258,0,3.046,0.225,3.583,1.635l1.455,3.824H37.255z"/>
<path fill="#FECD2D" d="M59.861,17.425h-3.617V36.9h3.617V17.425z"/>
</svg>
