<svg xmlns="http://www.w3.org/2000/svg" viewBox="0 0 326.27 71.45"><defs><style>.a{fill:#8bc53f;}.b{fill:#010101;}</style></defs><title>sawa</title><path class="a" d="M175.39,29l-2.24,11.23a71.79,71.79,0,0,0-1.32,8.38h-.46c-.54-3.92-1-6.73-1.43-8.43L167.35,29H155.63L153,40.23a52.93,52.93,0,0,0-1.38,8.38h-.41q-.8-5.88-1.38-8.43L147.42,29h-12.8l1.74,5.23-.12-.29a9.9,9.9,0,0,0-4.88-4.06q-3.73-1.72-10.51-1.72-15.5,0-16,11.13h11.54c.35-2.53,1.93-3.8,4.77-3.8,2.64,0,4,.8,4,2.4,0,.94-.78,1.6-2.35,2q-.41.11-6.75,1.11-6.72,1-9.59,3.07a7.2,7.2,0,0,0-2.3,2.77,7.24,7.24,0,0,0-1-2.24,10.73,10.73,0,0,0-4.33-3.46,15.86,15.86,0,0,0-4-1.14l-6.49-1.14c-2.33-.41-3.5-1-3.5-1.87q0-1.72,3.5-1.72,4,0,4.14,2.86h11.08q-.18-9.67-15.48-9.67-7.29,0-11.19,2.58A8.12,8.12,0,0,0,73,38.19a7.06,7.06,0,0,0,3.11,6q2.87,2.08,9.42,3.33,4.54.88,5.05,1c1.22.38,1.84,1,1.84,1.77q0,2.34-3.85,2.34-4.37,0-4.71-4H72.35q.06,10.86,16.43,10.87,7.63,0,11.68-2.63A8.62,8.62,0,0,0,103.84,53a7.71,7.71,0,0,0,2.71,3.82q3.11,2.42,8.55,2.42,7.06,0,10.63-4.11l.4,3.27h12.69v-.83a1.85,1.85,0,0,1-1.38-1.82V40.39a19.11,19.11,0,0,0-.4-4.12l7.4,22.21h12.75l2.64-11.28a67.28,67.28,0,0,0,1.38-8.27h.4a51.32,51.32,0,0,0,1.45,8.16l2.69,11.38h12.74L188.42,29ZM119.53,52.24a5.64,5.64,0,0,1-3-.73,2.06,2.06,0,0,1-1.14-1.72,2.1,2.1,0,0,1,1.43-1.93A25,25,0,0,1,121,46.72a12.33,12.33,0,0,0,4.59-1.66,10.72,10.72,0,0,1,.06,1.25q0,5.93-6.08,5.92m98.67,3.59V40.39a13.9,13.9,0,0,0-1.2-6.45,9.91,9.91,0,0,0-4.88-4.06q-3.73-1.72-10.5-1.72-15.51,0-16,11.13h11.54q.52-3.8,4.76-3.8c2.64,0,4,.8,4,2.4q0,1.4-2.36,2Q203.27,40,197,41q-6.72,1-9.59,3.07a7.46,7.46,0,0,0-3,6.4,7.8,7.8,0,0,0,3.1,6.48q3.1,2.42,8.55,2.42,7.07,0,10.63-4.11l.4,3.27h12.69v-.83a1.86,1.86,0,0,1-1.38-1.82m-17.91-3.59a5.62,5.62,0,0,1-3-.73,2,2,0,0,1-1.38-1.75,2.11,2.11,0,0,1,1.44-1.93,25.42,25.42,0,0,1,4.2-1.14,12.36,12.36,0,0,0,4.59-1.66,10.4,10.4,0,0,1,.06,1.25q0,5.93-6.09,5.92"/><path class="b" d="M320.33,28.81V58.19L306,43.38l14-14.56h-7.9l-9.66,11.3-9.23-11.3h-8.11l13.15,14.56L288.06,53.89c-.76.08-2,.12-2.44.12a2.59,2.59,0,0,1-2.56-1.39,8.6,8.6,0,0,1-.37-3v-12q0-5.42-3.39-7.64t-11.59-2.21q-11.34,0-14.54,5.9V29H217.32v5.26h15.05V58.44h6.3V34.25H252.9a11.16,11.16,0,0,0-1,4h6.16a5.24,5.24,0,0,1,2.63-4.46q2.39-1.36,7.4-1.35,4.46,0,6.48,1a3.59,3.59,0,0,1,2,3.43q0,2.38-2.69,3.1-1.1.28-8.19,1-8.38.83-10.51,2-4.71,2.54-4.71,7.2a7.6,7.6,0,0,0,3.26,6.56q3.28,2.36,9.39,2.35,9.24,0,13.76-5.31.85,4.59,5.8,4.59h8.71l10.94-11.56,10,11.56h13.94V28.81ZM276.75,47.64c0,1.92-1.15,3.54-3.42,4.87a18,18,0,0,1-9.18,2.11Q257,54.62,257,50a3.53,3.53,0,0,1,2.5-3.49,33,33,0,0,1,7.33-1.27q7.58-.78,9.91-2Z"/><path class="a" d="M59.27,21.32c-7-10.45-21.75-5.55-25-3.84a6.41,6.41,0,0,1-2.09.68C34.78,5.37,42.06,0,42.06,0H35.45c-5.16,4.39-6,14.06-6.14,17.57l-.2-.09c-3.19-1.71-17.92-6.61-25,3.84s-5.33,34.13,7.68,45.43c0,0,3.63,4.48,7.89,4.69,4,.2,8.15-2.76,12-3.16,3.83.4,8,3.36,12,3.16,4.27-.21,7.89-4.69,7.89-4.69,13-11.3,14.72-35,7.68-45.43M33.06,25.25a4.74,4.74,0,0,1-1.56.13,4.76,4.76,0,0,1-1.57-.13,6.84,6.84,0,0,1-5.37-5.37,10.5,10.5,0,0,0,6.93,2.92,10.5,10.5,0,0,0,6.93-2.92,6.85,6.85,0,0,1-5.36,5.37"/></svg>